<?xml version="1.0" standalone="no"?>
<!DOCTYPE svg PUBLIC "-//W3C//DTD SVG 20010904//EN"
 "http://www.w3.org/TR/2001/REC-SVG-20010904/DTD/svg10.dtd">
<svg version="1.0" xmlns="http://www.w3.org/2000/svg"
 width="1231.000000pt" height="1231.000000pt" viewBox="0 0 1231.000000 1231.000000"
 preserveAspectRatio="xMidYMid meet">
<metadata>
Created by potrace 1.14, written by Peter Selinger 2001-2017
</metadata>
<g transform="translate(0.000000,1231.000000) scale(0.100000,-0.100000)"
fill="#000000" stroke="none">
<path d="M2520 7605 c0 -91 3 -125 12 -125 9 0 9 -3 0 -12 -8 -8 -15 -8 -25 0
-8 7 -25 12 -38 12 -13 0 -33 0 -44 -1 -11 0 -34 0 -51 0 -18 1 -37 -5 -43
-13 -7 -8 -20 -12 -30 -9 -11 3 -24 -3 -32 -14 -8 -10 -22 -19 -32 -21 -25 -4
-117 -100 -117 -122 0 -10 -7 -23 -15 -30 -22 -18 -15 -52 13 -66 16 -8 19
-13 10 -16 -10 -4 -1 -29 32 -98 25 -51 51 -100 59 -108 12 -11 12 -18 3 -33
-17 -27 -15 -49 6 -56 38 -14 26 -28 -67 -73 -476 -234 -720 -776 -575 -1277
112 -388 397 -667 789 -773 121 -33 348 -39 475 -12 211 44 383 131 532 271
176 165 269 321 331 554 18 70 21 108 21 257 -1 191 -10 242 -73 405 -91 238
-318 476 -556 586 -39 18 -72 34 -74 36 -2 1 8 14 24 28 26 25 26 27 10 46
-16 17 -17 21 -3 37 15 16 108 195 108 207 0 3 -8 5 -17 6 -12 0 -8 4 9 10 34
13 45 44 24 68 -9 10 -16 25 -16 34 0 9 -9 21 -20 27 -11 6 -20 17 -20 26 0 8
-8 17 -17 21 -10 3 -25 15 -33 25 -9 11 -23 20 -32 21 -8 2 -23 11 -33 21 -10
9 -26 15 -36 13 -10 -3 -20 1 -23 9 -3 8 -19 14 -38 14 -36 -1 -57 -1 -102 -1
-16 0 -36 -5 -43 -11 -7 -6 -17 -7 -21 -3 -4 4 -1 10 6 12 9 3 12 39 12 129
l0 124 -125 0 -125 0 0 -125z m163 -86 c12 -6 29 -19 35 -30 15 -24 6 -45 -12
-30 -7 6 -15 8 -18 5 -10 -9 -78 -13 -83 -4 -3 4 -14 6 -25 3 -27 -7 -25 13 5
42 26 27 60 32 98 14z m-306 -75 c8 -21 -13 -42 -28 -27 -13 13 -5 43 11 43 6
0 13 -7 17 -16z m63 2 c0 -8 -5 -18 -11 -22 -14 -8 -33 11 -25 25 10 16 36 13
36 -3z m57 -2 c8 -21 -13 -42 -28 -27 -13 13 -5 43 11 43 6 0 13 -7 17 -16z
m318 -7 c0 -26 -20 -25 -23 2 -3 16 1 22 10 19 7 -3 13 -12 13 -21z m65 3 c0
-11 -7 -20 -15 -20 -8 0 -15 9 -15 20 0 11 7 20 15 20 8 0 15 -9 15 -20z m58
-2 c-4 -27 -28 -36 -28 -10 0 20 8 32 22 32 5 0 8 -10 6 -22z m-341 -95 c-2
-21 -4 -4 -4 37 0 41 2 58 4 38 2 -21 2 -55 0 -75z m103 37 c0 -40 -4 -70 -10
-70 -11 0 -14 123 -3 133 12 13 13 7 13 -63z m-380 35 c0 -8 -4 -16 -9 -19
-12 -8 -34 21 -27 33 9 14 36 2 36 -14z m233 19 c9 -10 -4 -34 -19 -34 -8 0
-14 9 -14 20 0 19 19 27 33 14z m107 -9 c0 -8 -9 -15 -20 -15 -20 0 -26 11
-13 23 12 13 33 7 33 -8z m105 -5 c0 -22 -29 -18 -33 3 -3 14 1 18 15 15 10
-2 18 -10 18 -18z m235 -5 c0 -19 -20 -29 -32 -17 -8 8 -7 16 2 26 14 17 30
12 30 -9z m-734 -26 c3 -6 1 -16 -4 -21 -13 -13 -45 8 -36 23 7 12 31 11 40
-2z m794 -3 c0 -8 -5 -18 -11 -22 -14 -8 -33 11 -25 25 10 16 36 13 36 -3z
m-530 -12 c22 -9 40 -20 40 -25 0 -12 3 -12 -58 11 -69 26 -116 25 -177 -4
-53 -25 -92 -58 -138 -116 -32 -41 -25 -13 11 42 24 37 77 79 122 97 40 16
155 13 200 -5z m130 7 c0 -5 -9 -11 -20 -14 -13 -3 -20 0 -20 9 0 8 9 14 20
14 11 0 20 -4 20 -9z m315 -15 c49 -23 84 -55 118 -106 29 -43 18 -55 -12 -14
-83 115 -188 156 -303 117 -64 -22 -79 -14 -20 10 58 25 157 21 217 -7z m-760
-26 c0 -22 -29 -18 -33 3 -3 14 1 18 15 15 10 -2 18 -10 18 -18z m190 -3 c-35
-19 -125 -49 -125 -41 0 6 73 47 98 54 54 16 68 10 27 -13z m498 12 c23 -5 53
-19 67 -30 l25 -20 -30 7 c-35 7 -135 54 -116 54 7 0 31 -5 54 -11z m207 -3
c0 -8 -7 -17 -16 -20 -23 -9 -24 -8 -24 14 0 13 7 20 20 20 11 0 20 -6 20 -14z
m-450 -17 c0 -14 -5 -19 -17 -17 -26 5 -29 38 -4 38 15 0 21 -6 21 -21z m-480
-34 c0 -8 -9 -15 -20 -15 -11 0 -20 7 -20 15 0 8 9 15 20 15 11 0 20 -7 20
-15z m968 3 c-5 -15 -48 -24 -48 -10 0 14 12 22 33 22 10 0 17 -5 15 -12z
m-488 -34 c-18 -47 -13 -57 25 -52 25 3 35 0 35 -10 0 -9 -6 -12 -16 -8 -9 3
-34 6 -57 6 -32 1 -38 3 -25 10 13 8 15 16 7 43 -5 17 -9 33 -9 34 0 2 11 3
25 3 22 0 24 -2 15 -26z m-512 -27 c2 -10 -3 -17 -12 -17 -18 0 -29 16 -21 31
9 14 29 6 33 -14z m252 -14 c10 -20 25 -33 43 -37 28 -6 39 -36 13 -36 -21 0
-28 -17 -17 -38 7 -14 6 -19 -4 -19 -7 0 -18 11 -24 25 -11 23 -12 23 -36 8
-23 -15 -26 -15 -31 -1 -4 9 1 23 9 33 12 13 14 29 10 61 -5 35 -3 43 8 39 8
-2 21 -18 29 -35z m523 -13 c-9 -23 -8 -32 3 -41 16 -13 19 -45 5 -53 -5 -3
-14 1 -21 9 -16 19 -40 2 -40 -29 0 -16 -2 -18 -9 -7 -5 8 -14 10 -22 6 -11
-6 -12 -5 -1 6 19 21 15 49 -8 49 -11 0 -20 4 -20 8 0 15 24 32 47 32 16 0 23
6 23 19 0 27 30 55 43 42 8 -8 8 -20 0 -41z m247 36 c0 -8 -5 -18 -11 -22 -14
-8 -33 11 -25 25 10 16 36 13 36 -3z m-581 -35 c11 -7 9 -11 -8 -20 -18 -10
-21 -9 -21 9 0 22 7 25 29 11z m-419 -58 c0 -22 -2 -25 -10 -13 -13 20 -13 40
0 40 6 0 10 -12 10 -27z m964 19 c2 -4 -1 -18 -9 -31 -12 -24 -12 -24 -11 8 1
30 9 40 20 23z m-874 -64 c0 -5 -11 -8 -24 -8 -14 0 -28 -5 -31 -10 -4 -6 -10
-8 -15 -5 -5 3 2 17 16 32 13 14 24 31 24 37 1 11 29 -33 30 -46z m393 33 c3
-13 -1 -21 -13 -24 -16 -4 -17 -2 -8 19 13 29 14 29 21 5z m443 -37 c8 3 11
-1 7 -10 -4 -11 -9 -12 -16 -5 -6 6 -24 11 -39 11 l-29 0 17 32 17 33 15 -33
c9 -18 21 -31 28 -28z m-543 -41 c-7 -2 -21 -2 -30 0 -10 3 -4 5 12 5 17 0 24
-2 18 -5z m220 0 c-7 -2 -21 -2 -30 0 -10 3 -4 5 12 5 17 0 24 -2 18 -5z m111
-9 c3 -8 2 -12 -4 -9 -6 3 -10 10 -10 16 0 14 7 11 14 -7z m-474 -8 c0 -2 -8
-10 -17 -17 -16 -13 -17 -12 -4 4 13 16 21 21 21 13z m-160 -34 c-7 -3 -19 3
-28 13 -16 15 -15 16 12 4 15 -7 23 -15 16 -17z m575 3 c102 -26 225 -77 225
-93 0 -6 -35 5 -78 24 -234 101 -439 101 -659 -1 -86 -40 -83 -39 -83 -24 0
21 195 94 300 112 78 13 202 6 295 -18z m235 5 c-8 -5 -19 -10 -25 -10 -5 0
-3 5 5 10 8 5 20 10 25 10 6 0 3 -5 -5 -10z m-393 -46 c5 -15 -28 -27 -40 -15
-5 5 -6 14 -2 21 8 13 37 9 42 -6z m-182 -19 c0 -14 -13 -22 -49 -31 -53 -14
-66 -11 -66 11 0 14 84 46 105 41 6 -1 10 -11 10 -21z m404 -1 c30 -13 33 -16
20 -29 -12 -12 -22 -13 -54 -4 -49 13 -60 23 -51 44 6 17 19 16 85 -11z m-29
-80 c392 -80 703 -379 813 -779 19 -69 22 -105 22 -260 0 -216 -16 -288 -99
-460 -64 -130 -125 -213 -230 -313 -446 -423 -1162 -373 -1549 108 -86 107
-169 271 -204 405 -23 88 -26 120 -26 260 0 141 3 172 27 260 112 427 467 739
901 795 88 11 247 4 345 -16z"/>
<path d="M2551 6831 c-11 -7 -13 -29 -9 -100 3 -51 8 -94 11 -97 3 -3 15 -3
26 1 16 5 21 15 21 40 0 31 3 35 35 41 25 4 35 11 35 25 0 15 -7 19 -40 19
-29 0 -40 4 -40 15 0 9 9 15 23 15 42 0 67 12 67 31 0 16 -8 19 -57 19 -32 0
-64 -4 -72 -9z"/>
<path d="M2781 6748 c-7 -40 -14 -83 -17 -95 -4 -16 0 -23 16 -28 12 -4 24 -4
27 -2 7 7 33 145 33 175 0 16 -6 22 -24 22 -21 0 -24 -6 -35 -72z"/>
<path d="M2950 6735 c-65 -148 -61 -135 -42 -142 9 -3 20 -8 25 -10 4 -3 12 9
18 26 16 45 39 40 39 -9 0 -29 5 -42 19 -50 29 -15 31 -13 31 30 0 29 5 42 20
50 27 15 43 47 36 76 -4 16 -23 32 -56 49 -27 14 -54 25 -60 25 -6 0 -20 -20
-30 -45z m95 -46 c0 -17 -33 -25 -47 -11 -6 6 -7 20 -3 32 6 19 9 20 28 7 12
-8 22 -21 22 -28z"/>
<path d="M2172 6722 c-9 -6 -3 -29 28 -95 23 -48 45 -87 51 -87 15 0 109 50
109 58 0 4 -4 13 -9 20 -7 12 -14 11 -39 -2 -17 -9 -33 -16 -36 -16 -3 0 -19
29 -35 65 -29 63 -42 74 -69 57z"/>
<path d="M3163 6579 c-32 -38 -58 -74 -58 -78 0 -10 96 -91 108 -91 4 0 11 8
14 17 4 11 -4 25 -27 45 -25 21 -31 31 -23 39 9 9 20 6 43 -11 26 -19 34 -20
41 -9 13 21 11 26 -18 49 -20 15 -24 23 -15 32 8 8 20 4 46 -15 31 -24 35 -25
47 -10 12 13 7 21 -36 59 -28 24 -53 44 -57 44 -4 0 -33 -32 -65 -71z"/>
<path d="M1986 6591 c-16 -18 -15 -23 20 -115 34 -88 38 -95 56 -85 16 8 19
17 14 40 -7 37 30 67 62 50 15 -8 23 -6 36 8 15 16 11 20 -71 67 -48 27 -90
50 -93 52 -4 1 -14 -6 -24 -17z m73 -60 c7 -5 10 -14 7 -20 -11 -17 -23 -13
-29 9 -6 22 0 25 22 11z"/>
<path d="M2461 6550 c-421 -114 -656 -553 -513 -959 40 -111 85 -182 172 -271
139 -141 292 -209 490 -218 141 -6 240 16 370 79 68 34 102 60 176 133 101
101 151 180 192 304 22 67 26 95 26 212 1 115 -3 146 -22 210 -41 131 -87 206
-192 311 -101 101 -171 146 -300 189 -96 33 -297 38 -399 10z m337 -35 c86
-20 194 -72 268 -128 283 -214 357 -629 165 -922 l-32 -50 -245 0 c-259 0
-263 1 -264 47 0 15 10 17 73 15 66 -2 73 0 82 21 7 16 18 22 42 22 18 0 36 6
40 14 4 8 24 16 43 18 27 2 36 8 38 26 2 12 9 22 16 22 23 0 88 67 84 87 -1
10 7 32 19 48 28 40 43 98 43 165 0 37 8 72 25 109 14 30 24 56 21 58 -2 2
-19 -5 -37 -15 -19 -11 -60 -22 -91 -26 l-57 -6 15 42 c33 96 27 206 -13 240
-14 11 -16 10 -10 -13 9 -35 -16 -113 -51 -167 l-29 -43 -6 58 c-3 32 -15 81
-28 108 -12 28 -23 69 -23 92 -1 48 -7 52 -37 22 -31 -31 -47 -78 -55 -155 -4
-38 -14 -85 -22 -104 l-15 -35 -8 66 c-5 46 -19 89 -47 145 l-40 79 -7 -40
c-11 -69 -17 -72 -29 -15 -11 55 -59 150 -75 150 -5 0 -6 -30 -4 -67 5 -59 2
-74 -20 -115 -14 -26 -28 -67 -32 -90 l-7 -42 -20 24 c-38 47 -69 122 -77 184
l-7 61 -22 -35 c-34 -53 -55 -136 -48 -188 3 -24 19 -68 35 -96 47 -82 58
-146 26 -146 -22 0 -52 46 -59 91 -8 48 -61 109 -95 109 -25 0 -26 -6 -6 -54
14 -34 14 -42 -2 -93 l-17 -56 -13 29 c-7 16 -12 66 -13 111 0 72 -3 85 -25
110 l-24 28 -1 -56 c0 -30 -7 -77 -16 -103 -23 -66 -16 -165 14 -206 l23 -30
-46 0 c-25 0 -45 -4 -45 -8 0 -17 62 -102 101 -137 22 -19 53 -38 70 -42 21
-4 27 -9 20 -16 -18 -18 -14 -67 5 -67 9 0 22 -7 29 -17 10 -14 18 -15 58 -5
25 7 56 12 68 12 21 0 21 0 -2 -19 -20 -16 -21 -21 -10 -35 16 -19 142 -23
186 -6 26 10 26 9 23 -28 l-3 -37 -240 -2 c-132 -1 -248 1 -257 3 -24 7 -81
104 -112 193 -134 375 95 798 486 901 90 23 238 26 326 5z"/>
<path d="M1818 6403 c-8 -10 -25 -35 -37 -55 l-22 -38 83 -53 c80 -52 83 -53
97 -34 12 17 11 21 -14 41 -36 29 -26 46 24 39 32 -4 41 -2 50 15 12 22 -1 32
-45 32 -15 0 -24 6 -24 15 0 45 -82 73 -112 38z m59 -53 c5 -28 -12 -43 -36
-31 -18 10 -19 15 -10 32 12 23 42 22 46 -1z"/>
<path d="M3439 6311 c-22 -18 -23 -22 -13 -70 7 -34 7 -54 1 -58 -16 -10 -38
29 -32 57 3 14 1 31 -4 39 -14 22 -41 -5 -41 -41 0 -67 56 -119 105 -96 31 14
39 38 26 84 -6 21 -8 41 -5 46 10 16 34 -14 32 -41 -4 -49 22 -67 42 -30 15
27 4 72 -25 103 -29 31 -54 33 -86 7z"/>
<path d="M1700 6191 c0 -5 -3 -16 -6 -25 -4 -11 10 -20 64 -36 74 -23 89 -37
68 -65 -11 -16 -17 -16 -81 4 -38 11 -70 19 -72 18 -1 -2 -4 -14 -5 -27 -3
-20 4 -25 57 -41 33 -11 72 -19 86 -19 35 0 60 30 66 79 7 54 -12 75 -86 96
-31 9 -64 18 -73 21 -10 3 -18 1 -18 -5z"/>
<path d="M3505 6063 c-43 -8 -81 -15 -83 -17 -1 -2 3 -33 9 -70 11 -59 15 -66
36 -66 19 0 22 4 19 23 -12 53 -11 72 5 75 12 2 18 -8 23 -38 6 -41 11 -46 34
-31 10 6 11 19 6 46 -6 33 -4 37 12 33 10 -2 20 -12 22 -23 8 -57 12 -63 32
-58 24 6 23 0 9 80 -13 71 -4 68 -124 46z"/>
<path d="M1656 5898 c-10 -14 -16 -44 -16 -80 l0 -58 100 0 100 0 0 25 c0 22
-4 25 -35 25 -25 0 -35 4 -35 16 0 8 16 22 35 30 27 11 35 20 35 39 0 29 2 29
-43 10 -31 -13 -36 -13 -47 0 -19 23 -76 19 -94 -7z m72 -61 c3 -23 0 -27 -22
-27 -21 0 -26 5 -26 23 0 13 3 27 7 31 15 14 38 0 41 -27z"/>
<path d="M3450 5822 c0 -6 -3 -17 -6 -26 -5 -13 1 -16 31 -16 29 0 36 -3 33
-17 -2 -10 -17 -21 -35 -26 -18 -6 -33 -18 -37 -30 -8 -32 1 -37 41 -23 32 11
39 10 55 -6 10 -10 28 -18 41 -18 42 0 60 23 68 86 3 33 4 62 0 65 -11 12
-191 22 -191 11z m150 -76 c0 -25 -15 -36 -37 -29 -7 3 -13 16 -13 29 0 19 5
24 25 24 20 0 25 -5 25 -24z"/>
<path d="M3388 5541 c-10 -28 -18 -19 100 -119 50 -42 51 -42 62 -22 12 22 1
35 -89 108 -13 10 -3 11 56 6 66 -6 72 -5 83 16 6 12 10 23 8 25 -2 1 -49 5
-106 7 l-104 5 -10 -26z"/>
<path d="M1800 5520 c-19 -4 -52 -11 -72 -14 -35 -6 -36 -8 -27 -30 10 -21 15
-23 48 -15 63 15 67 11 28 -29 -50 -51 -39 -69 33 -55 l52 10 -37 -37 c-28
-29 -35 -43 -30 -60 4 -11 10 -20 15 -18 5 2 40 34 79 71 86 83 86 102 2 92
l-56 -6 39 34 c65 56 33 81 -74 57z"/>
<path d="M3304 5382 c-10 -15 0 -25 72 -75 78 -54 84 -56 94 -38 5 11 10 22
10 25 0 7 -147 106 -157 106 -5 0 -13 -8 -19 -18z"/>
<path d="M1976 5284 c-22 -22 -20 -60 5 -96 15 -21 18 -33 11 -40 -16 -16 -40
7 -44 40 -4 33 -34 42 -43 12 -9 -29 24 -81 61 -96 68 -28 106 33 64 102 -12
19 -19 38 -16 42 11 10 41 -13 45 -34 5 -30 33 -57 43 -42 16 27 7 61 -26 94
-37 37 -75 44 -100 18z"/>
<path d="M3179 5241 c-31 -31 -36 -59 -18 -92 10 -20 11 -20 30 -3 11 10 17
24 15 31 -17 44 37 58 73 19 32 -34 25 -70 -14 -74 -41 -5 -59 -20 -44 -38 18
-22 65 -16 98 12 25 21 31 33 31 66 0 32 -7 47 -34 74 -45 45 -95 47 -137 5z"/>
<path d="M2146 5083 c-34 -65 -42 -90 -34 -100 19 -23 33 -14 58 35 l24 47 10
-68 c10 -60 24 -86 48 -87 7 0 101 171 96 175 -35 27 -43 23 -70 -28 -29 -58
-30 -57 -43 45 -4 32 -12 51 -25 58 -17 9 -24 0 -64 -77z"/>
<path d="M2998 5119 c-54 -27 -71 -50 -48 -64 5 -3 27 3 49 14 34 18 40 19 45
5 8 -22 9 -20 -24 -34 -31 -13 -34 -18 -24 -44 5 -14 9 -14 34 -1 36 18 50 19
50 2 0 -7 -16 -21 -35 -30 -37 -17 -40 -23 -26 -45 6 -11 21 -7 70 17 33 17
61 33 61 36 0 10 -85 175 -90 175 -3 -1 -31 -14 -62 -31z"/>
<path d="M9830 7084 c-116 -20 -291 -81 -386 -135 -112 -63 -247 -199 -297
-299 -56 -113 -71 -185 -71 -330 0 -142 22 -241 76 -343 57 -106 193 -225 324
-283 104 -46 178 -65 473 -125 318 -64 365 -76 453 -120 78 -39 102 -76 106
-165 6 -108 -30 -165 -138 -219 -57 -29 -129 -45 -230 -51 -171 -10 -335 36
-429 121 -35 32 -85 116 -105 178 -5 16 -28 17 -300 17 -182 0 -297 -4 -301
-10 -10 -16 15 -130 44 -206 138 -356 577 -582 1090 -561 325 13 592 116 770
296 83 84 130 159 167 266 25 72 28 94 28 215 1 155 -13 222 -71 340 -28 58
-56 95 -122 160 -142 142 -245 184 -641 261 -393 76 -423 85 -503 141 -72 51
-93 177 -43 261 53 91 145 136 296 144 175 10 311 -27 390 -107 45 -44 65 -86
84 -172 l6 -28 297 0 296 0 -7 61 c-36 347 -280 592 -684 685 -98 23 -459 28
-572 8z"/>
<path d="M4712 5828 l3 -1243 295 0 295 0 3 453 2 452 209 0 208 0 102 -242
c57 -134 143 -339 193 -455 l90 -213 299 0 c239 0 299 3 299 13 0 7 -99 233
-219 502 l-219 489 51 35 c135 89 256 225 301 337 45 109 59 211 53 373 -8
242 -61 378 -201 517 -97 96 -197 152 -344 192 l-97 26 -663 4 -662 3 2 -1243z
m1170 770 c150 -70 223 -207 197 -369 -22 -136 -108 -234 -239 -273 -42 -13
-104 -16 -292 -16 l-238 0 0 346 0 346 258 -4 c254 -3 258 -3 314 -30z"/>
<path d="M7062 5828 l3 -1243 295 0 295 0 3 498 2 497 495 0 495 0 -2 238 -3
237 -492 3 -493 2 0 260 0 260 578 0 579 0 6 128 c4 70 7 180 7 245 l0 117
-885 0 -885 0 2 -1242z"/>
<path d="M3490 6905 c0 -17 -6 -20 -45 -18 -50 2 -56 -8 -29 -46 14 -19 14
-25 3 -32 -8 -5 -20 -9 -26 -9 -23 0 -14 -19 29 -66 48 -52 104 -87 168 -105
53 -15 66 -23 72 -47 4 -15 -1 -17 -29 -14 -32 4 -33 3 -24 -22 34 -87 107
-173 179 -210 44 -23 44 -55 1 -50 l-32 4 6 -51 c9 -70 47 -149 102 -208 48
-51 48 -61 3 -56 -31 4 -38 -12 -38 -101 0 -62 25 -151 54 -197 9 -13 14 -32
10 -41 -7 -18 -24 -22 -24 -5 0 8 -5 8 -15 -1 -10 -9 -15 -9 -15 -1 0 24 -19
9 -39 -31 -35 -73 -45 -142 -32 -221 8 -49 9 -73 1 -81 -7 -7 -10 -3 -10 13 0
18 -3 21 -13 12 -9 -7 -17 -7 -24 0 -14 14 -70 -51 -101 -120 -16 -34 -27 -80
-30 -123 -2 -37 -9 -68 -13 -68 -5 0 -9 9 -9 19 0 19 -7 20 -63 12 -15 -2
-100 -87 -122 -121 -12 -19 -30 -59 -39 -87 -10 -31 -24 -53 -32 -53 -10 0
-13 7 -8 25 6 23 3 25 -27 25 -76 0 -196 -81 -245 -166 -19 -33 -29 -41 -45
-37 -20 6 -20 6 0 27 12 12 21 25 21 29 0 4 -32 7 -70 7 -86 0 -176 -28 -242
-76 l-48 -34 -45 35 c-60 45 -158 75 -248 75 l-71 0 29 -30 29 -30 -26 0 c-18
0 -34 11 -53 38 -59 79 -149 138 -236 151 -53 9 -60 1 -34 -35 13 -20 13 -21
-10 -16 -14 2 -25 8 -25 13 0 25 -45 123 -73 158 -36 45 -101 95 -134 104 -19
4 -23 1 -23 -19 0 -13 -4 -24 -9 -24 -4 0 -11 29 -14 66 -9 112 -89 243 -152
250 -20 2 -25 -2 -25 -19 0 -16 -3 -18 -11 -10 -9 9 -9 23 0 57 16 66 14 136
-9 209 -19 62 -50 108 -50 76 0 -11 -2 -11 -9 0 -7 12 -13 12 -24 3 -27 -22
-25 0 4 46 40 67 61 154 53 225 -4 43 -10 57 -20 53 -7 -3 -16 -1 -20 5 -4 6
-11 6 -20 -2 -11 -9 -14 -8 -14 3 0 8 18 32 41 53 49 48 82 111 98 183 14 68
14 83 -1 81 -26 -3 -48 1 -48 9 0 5 22 23 49 40 62 41 107 92 137 156 27 57
30 78 12 75 -66 -8 -54 22 17 45 71 22 142 72 187 132 31 40 35 50 21 53 -29
6 -42 25 -30 46 7 14 7 20 -1 23 -7 2 -12 10 -12 18 0 17 -10 17 -44 4 -23 -8
-26 -7 -26 11 0 14 -5 19 -14 16 -8 -3 -16 -1 -19 6 -5 16 -59 -25 -102 -78
-42 -51 -75 -130 -75 -179 0 -36 -24 -56 -34 -29 -4 8 -13 13 -20 10 -8 -3
-16 -1 -19 6 -7 22 -77 -89 -98 -156 -16 -51 -20 -81 -15 -118 7 -52 0 -81
-14 -59 -5 7 -20 14 -34 16 -23 2 -27 -3 -46 -63 -24 -79 -26 -178 -4 -233 9
-22 14 -47 10 -55 -5 -15 -31 -16 -52 -2 -15 9 -20 -6 -29 -75 -9 -71 15 -168
55 -226 17 -23 30 -53 30 -66 0 -21 -4 -23 -35 -19 -34 3 -35 3 -29 -29 22
-126 63 -193 172 -279 6 -5 12 -21 12 -35 0 -23 -3 -25 -24 -20 -37 9 -38 -5
-6 -60 49 -84 116 -144 187 -164 33 -10 44 -20 53 -43 13 -39 13 -40 -9 -34
-10 2 -25 1 -32 -4 -11 -6 1 -23 46 -69 68 -69 115 -95 201 -111 32 -7 68 -20
78 -30 19 -18 19 -18 -7 -28 -15 -6 -27 -15 -27 -20 0 -6 35 -27 77 -48 74
-36 81 -38 182 -39 59 -1 114 -5 124 -9 17 -7 16 -10 -9 -30 l-29 -23 55 -16
c98 -29 179 -31 258 -7 39 12 74 25 77 30 3 6 31 -2 63 -17 49 -23 70 -27 152
-27 52 0 115 6 140 14 l45 13 -27 23 -27 23 23 15 c18 12 41 14 98 10 86 -7
153 11 231 59 53 34 58 45 22 54 -29 7 -30 12 -7 39 12 15 31 21 66 23 70 3
148 42 212 107 56 58 60 75 18 75 -22 0 -24 3 -19 23 9 29 12 31 66 51 59 21
119 73 157 134 46 75 48 89 14 97 -41 9 -32 44 18 73 49 28 98 98 122 174 27
87 25 105 -11 103 -42 -2 -48 35 -10 71 57 54 93 193 75 289 -6 30 -10 34 -22
25 -11 -10 -14 -10 -14 -1 0 8 -8 10 -20 6 -24 -8 -25 5 -5 60 26 74 18 174
-24 279 -9 23 -14 26 -26 16 -12 -10 -15 -10 -15 1 0 10 -3 10 -12 1 -21 -21
-24 -13 -24 66 0 58 -5 89 -21 125 -30 65 -84 139 -99 133 -6 -2 -16 0 -22 6
-8 8 -13 3 -18 -15 -9 -38 -21 -25 -26 30 -7 71 -34 121 -105 190 -52 51 -68
62 -93 60 -23 -1 -30 -7 -30 -22z"/>
</g>
</svg>
